#!OML:ASF F:\VICON\USERDATA\INSTALL\rory3\rory3.ASF
:FULLY-SPECIFIED
:DEGREES
232
root 0.412961 17.832 16.133 -4.54146 3.20674 1.14374
lowerback 10.9748 -0.134281 -3.10694
upperback 1.67131 -0.501697 0.847522
thorax -4.37255 -0.194348 2.71029
lowerneck -15.7256 -3.02698 -1.70225
upperneck 20.1684 -4.02989 1.14515
head 8.97624 -1.89493 0.177249
rclavicle -7.85199e-015 5.76476e-015
rhumerus -30.3132 -22.2601 -77.3532
rradius 25.3218
rwrist 7.07904
rhand -17.0786 21.1687
rfingers 7.12502
rthumb 9.15952 -8.61237
lclavicle -7.85199e-015 5.76476e-015
lhumerus -26.3207 -1.71953 82.7886
lradius 25.6497
lwrist 8.17047
lhand -27.512 22.4619
lfingers 7.12502
lthumb -0.914587 52.4397
rfemur -28.805 -7.84929 20.6054
rtibia 61.7872
rfoot -10.188 -5.85537
rtoes -1.1037
lfemur -2.03867 -1.39183 -26.8401
ltibia 29.3701
lfoot -17.5436 -0.990537
ltoes 7.48008
233
root 0.411362 17.8266 16.2835 -4.28979 3.42485 1.01293
lowerback 10.9372 -0.235027 -3.0219
upperback 1.5765 -0.621756 0.9192
thorax -4.44277 -0.25196 2.75492
lowerneck -15.4415 -3.05064 -1.80919
upperneck 19.9726 -4.05921 1.24511
head 8.86229 -1.90915 0.230982
rclavicle 1.98785e-016 -1.51076e-014
rhumerus -30.6256 -22.3643 -77.2269
rradius 25.2584
rwrist 7.05724
rhand -17.0336 22.3008
rfingers 7.12502
rthumb 9.20297 -7.47838
lclavicle 1.98785e-016 -1.51076e-014
lhumerus -25.7729 -1.87842 82.6682
lradius 26.0353
lwrist 7.74214
lhand -27.6827 22.2872
lfingers 7.12502
lthumb -1.07943 52.2642
rfemur -29.5056 -7.53048 20.8747
rtibia 59.4542
rfoot -10.7988 -6.16046
rtoes -1.45061
lfemur -1.61898 -1.33907 -26.7429
ltibia 28.9232
lfoot -17.5605 -0.539528
ltoes 4.9229
234
root 0.412192 17.8137 16.436 -4.08327 3.59362 1.00719
lowerback 10.9509 -0.295603 -2.99897
upperback 1.45225 -0.701199 0.917857
thorax -4.57531 -0.287463 2.75351
lowerneck -15.1067 -3.06737 -1.66187
upperneck 19.8371 -4.082 1.0679
head 8.74784 -1.93091 0.150422
rclavicle 6.65929e-015 7.95139e-015
rhumerus -30.9786 -22.5567 -77.0559
rradius 25.1078
rwrist 7.17727
rhand -17.303 23.6646
rfingers 7.12502
rthumb 8.94298 -6.12586
lclavicle 6.65929e-015 7.95139e-015
lhumerus -25.3252 -2.19095 82.5416
lradius 26.2195
lwrist 7.34766
lhand -28.1357 22.5683
lfingers 7.12502
lthumb -1.51702 52.5426
rfemur -30.0536 -7.21261 20.9495
rtibia 56.96
rfoot -11.1756 -6.40352
rtoes -2.45044
lfemur -1.18677 -1.3148 -26.798
ltibia 28.4238
lfoot -17.3182 -0.0976998
ltoes 1.96537
235
root 0.417641 17.8167 16.6032 -3.98216 3.9232 1.30557
lowerback 10.9919 -0.430432 -3.26126
upperback 1.35792 -0.916629 0.861887
thorax -4.6788 -0.38634 2.87633
lowerneck -14.9084 -3.09907 -1.67765
upperneck 19.8485 -4.09055 0.910799
head 8.71246 -1.95425 0.102168
rclavicle 2.67862e-014 -1.13307e-014
rhumerus -31.3 -22.2219 -77.0899
rradius 25.2411
rwrist 6.78975
rhand -17.3101 22.867
rfingers 7.12502
rthumb 8.93615 -6.92376
lclavicle 2.67862e-014 -1.13307e-014
lhumerus -25.1223 -2.44971 82.4499
lradius 26.4959
lwrist 7.36904
lhand -29.1622 22.3573
lfingers 7.12502
lthumb -2.50834 52.3223
rfemur -30.1789 -7.09144 20.5827
rtibia 54.2553
rfoot -11.385 -7.15634
rtoes -4.2138
lfemur -0.380713 -1.55122 -27.1964
ltibia 27.8776
lfoot -17.3744 -0.0275266
ltoes 1.79504
236
root 0.412309 17.8306 16.7599 -3.73422 4.20562 1.27915
lowerback 11.0078 -0.548051 -3.3524
upperback 1.28026 -1.0811 0.941836
thorax -4.75385 -0.462526 3.03713
lowerneck -15.0385 -3.11601 -1.72217
upperneck 19.8889 -4.09549 0.883052
head 8.75044 -1.96186 0.0970587
rclavicle 1.49337e-014 -3.97569e-015
rhumerus -31.5171 -22.049 -77.0883
rradius 25.298
rwrist 6.51657
rhand -17.4419 22.8407
rfingers 7.12502
rthumb 8.80897 -6.95548
lclavicle 1.49337e-014 -3.97569e-015
lhumerus -24.683 -2.69568 82.4136
lradius 26.8115
lwrist 7.7129
lhand -30.1385 22.0423
lfingers 7.12502
lthumb -3.45118 51.9941
rfemur -30.3914 -6.58333 20.6017
rtibia 51.3352
rfoot -11.1505 -8.21699
rtoes -3.86119
lfemur 0.472094 -1.86024 -27.1638
ltibia 27.1196
lfoot -17.5161 -0.140113
ltoes 3.76555
237
root 0.408776 17.8469 16.9187 -3.5481 4.38876 1.13573
lowerback 10.9453 -0.638627 -3.25897
upperback 1.30399 -1.18437 1.00757
thorax -4.68672 -0.516478 3.06651
lowerneck -15.195 -3.06126 -1.78244
upperneck 19.795 -4.04976 1.10409
head 8.75265 -1.92066 0.185248
rclavicle 4.84538e-015 -1.11319e-014
rhumerus -31.7545 -22.4339 -76.9087
rradius 25.2112
rwrist 6.86084
rhand -17.7439 24.0583
rfingers 7.12502
rthumb 8.51751 -5.74988
lclavicle 4.84538e-015 -1.11319e-014
lhumerus -24.1284 -3.24797 82.3823
lradius 27.3675
lwrist 8.47221
lhand -30.4234 22.7761
lfingers 7.12502
lthumb -3.72638 52.7232
rfemur -30.5026 -5.94207 20.6932
rtibia 48.2402
rfoot -10.3726 -9.29676
rtoes -2.82028
lfemur 1.39966 -1.99742 -27.0033
ltibia 26.1798
lfoot -17.5645 -0.175514
ltoes 5.01273
238
root 0.405344 17.8637 17.0956 -3.46701 4.53113 1.37018
lowerback 10.8628 -0.664676 -3.5255
upperback 1.3294 -1.24985 0.963062
thorax -4.60445 -0.546564 3.17764
lowerneck -15.3571 -3.07757 -1.88223
upperneck 19.8826 -4.07812 1.24507
head 8.81804 -1.92474 0.242628
rclavicle -1.26477e-014 8.34896e-015
rhumerus -31.9885 -22.7431 -76.7329
rradius 25.1423
rwrist 7.15521
rhand -17.9488 24.2193
rfingers 7.12502
rthumb 8.31978 -5.59691
lclavicle -1.26477e-014 8.34896e-015
lhumerus -23.7101 -3.72952 82.3366
lradius 27.8216
lwrist 8.81114
lhand -30.5396 22.8933
lfingers 7.12502
lthumb -3.83858 52.8384
rfemur -30.4044 -5.36453 20.2866
rtibia 45.0001
rfoot -9.4175 -10.0738
rtoes -2.73204
lfemur 2.3593 -2.11803 -27.2747
ltibia 25.4282
lfoot -17.5697 -0.000587624
ltoes 5.66371
239
root 0.398943 17.8625 17.2645 -3.40872 4.82798 1.626
lowerback 11.0324 -0.731462 -3.86357
upperback 1.21655 -1.38894 0.924473
thorax -4.79916 -0.602853 3.35459
lowerneck -15.231 -3.10719 -1.93349
upperneck 19.891 -4.11671 1.2788
head 8.80056 -1.94404 0.259685
rclavicle 1.27719e-014 3.97569e-016
rhumerus -32.3734 -22.8347 -76.5533
rradius 25.1158
rwrist 7.19413
rhand -17.8444 24.7581
rfingers 7.12502
rthumb 8.42051 -5.054
lclavicle 1.27719e-014 3.97569e-016
lhumerus -23.4113 -4.04375 82.2735
lradius 27.9922
lwrist 8.80896
lhand -30.6667 22.7822
lfingers 7.12502
lthumb -3.96126 52.7251
rfemur -30.1545 -4.747 19.8157
rtibia 41.6342
rfoot -8.384 -10.9501
rtoes -3.6594
lfemur 3.26988 -2.25943 -27.53
ltibia 24.7647
lfoot -17.6553 0.0378461
ltoes 5.62875
240
root 0.391686 17.8389 17.4246 -3.10614 5.20576 1.59958
lowerback 10.8491 -0.866831 -3.90522
upperback 1.18377 -1.56613 0.940965
thorax -4.71474 -0.69102 3.41648
lowerneck -15.1935 -3.12316 -1.75923
upperneck 19.7543 -4.15266 1.15763
head 8.74075 -1.96176 0.187395
rclavicle -1.0958e-014 1.98785e-015
rhumerus -32.5183 -22.7848 -76.6407
rradius 25.1599
rwrist 7.17925
rhand -17.7612 25.224
rfingers 7.12502
rthumb 8.5008 -4.58486
lclavicle -1.0958e-014 1.98785e-015
lhumerus -22.8331 -4.33796 82.1174
lradius 28.4689
lwrist 9.38082
lhand -29.8725 24.2477
lfingers 7.12502
lthumb -3.19435 54.2035
rfemur -29.9805 -4.14124 19.6669
rtibia 38.1677
rfoot -7.40448 -11.7438
rtoes -4.01013
lfemur 3.6928 -2.41305 -27.4198
ltibia 24.2192
lfoot -17.6295 -0.343749
ltoes 5.47525
241
root 0.380558 17.8438 17.5879 -2.74013 5.29026 1.16477
lowerback 10.5067 -0.952428 -3.60127
upperback 1.14134 -1.62319 1.11975
thorax -4.56667 -0.726583 3.43094
lowerneck -15.1637 -3.08332 -1.78353
upperneck 19.6629 -4.09543 1.18211
head 8.70441 -1.93476 0.207717
rclavicle 9.0447e-015 -2.78299e-015
rhumerus -32.712 -22.5129 -76.7708
rradius 25.4921
rwrist 6.88682
rhand -17.7693 24.7581
rfingers 7.12502
rthumb 8.49293 -5.05109
lclavicle 9.0447e-015 -2.78299e-015
lhumerus -22.2992 -4.49873 81.983
lradius 29.2253
lwrist 10.3871
lhand -28.6888 26.2606
lfingers 7.12502
lthumb -2.05114 56.2305
rfemur -29.9449 -2.86437 19.8343
rtibia 34.5964
rfoot -6.76445 -12.5967
rtoes -1.422
lfemur 3.8883 -2.27526 -26.8244
ltibia 23.8091
lfoot -17.5436 -0.27722
ltoes 1.55691
242
root 0.368457 17.8338 17.7502 -2.44868 5.43765 1.18629
lowerback 10.3928 -1.01331 -3.7289
upperback 1.03568 -1.71354 1.17509
thorax -4.60089 -0.765975 3.57222
lowerneck -15.1519 -3.05393 -1.95629
upperneck 19.6382 -4.04064 1.31166
head 8.69981 -1.90834 0.286731
rclavicle -2.78299e-014 1.15295e-014
rhumerus -32.951 -22.629 -76.6381
rradius 25.6055
rwrist 6.95452
rhand -17.7253 24.144
rfingers 7.12502
rthumb 8.53545 -5.66347
lclavicle -2.78299e-014 1.15295e-014
lhumerus -21.9455 -4.63614 81.9145
lradius 29.5983
lwrist 10.8052
lhand -28.4454 25.7968
lfingers 7.12502
lthumb -1.81606 55.7688
rfemur -29.7131 -1.59643 19.4294
rtibia 30.9397
rfoot -6.62367 -13.6541
rtoes 1.14913
lfemur 4.26922 -2.03195 -26.7246
ltibia 23.5168
lfoot -17.6933 0.024626
ltoes -2.83756
243
root 0.36105 17.8327 17.9194 -2.35894 5.69239 1.13015
lowerback 10.3675 -1.11637 -3.67525
upperback 1.051 -1.84194 1.19873
thorax -4.56029 -0.831515 3.58297
lowerneck -15.3703 -3.08198 -1.90433
upperneck 19.709 -4.06768 1.21308
head 8.76072 -1.92572 0.237763
rclavicle -6.16232e-015 -9.54166e-015
rhumerus -32.9654 -22.7345 -76.6412
rradius 25.6361
rwrist 6.89884
rhand -17.5824 23.5254
rfingers 7.12502
rthumb 8.67338 -6.27643
lclavicle -6.16232e-015 -9.54166e-015
lhumerus -21.4271 -4.87093 81.7919
lradius 29.6312
lwrist 10.9136
lhand -28.6293 25.0996
lfingers 7.12502
lthumb -1.99368 55.07
rfemur -29.2156 -0.165646 18.908
rtibia 27.4515
rfoot -6.91768 -14.7566
rtoes 2.11258
lfemur 5.10925 -2.04466 -26.5489
ltibia 22.9099
lfoot -17.7888 0.0168799
ltoes -4.47981
244
root 0.34866 17.8282 18.0997 -2.3169 5.7913 1.00534
lowerback 10.1963 -1.1434 -3.66506
upperback 1.18473 -1.86614 1.25611
thorax -4.32098 -0.851474 3.63185
lowerneck -15.8009 -3.1365 -1.84135
upperneck 19.9244 -4.14021 1.14552
head 8.91109 -1.95798 0.187203
rclavicle 6.70898e-016 -3.57812e-015
rhumerus -32.8775 -23.261 -76.5373
rradius 25.4568
rwrist 7.33403
rhand -17.5513 23.8619
rfingers 7.12502
rthumb 8.70333 -5.93871
lclavicle 6.70898e-016 -3.57812e-015
lhumerus -20.7473 -5.18738 81.6775
lradius 29.7857
lwrist 11.0008
lhand -28.8597 25.8429
lfingers 7.12502
lthumb -2.21619 55.8111
rfemur -28.7061 1.64955 18.365
rtibia 24.181
rfoot -6.9919 -15.8582
rtoes 1.00985
lfemur 6.05571 -1.98605 -26.2408
ltibia 22.1862
lfoot -17.8986 -0.351527
ltoes -4.11597
